<svg xmlns="http://www.w3.org/2000/svg" xmlns:xlink="http://www.w3.org/1999/xlink" width="40" zoomAndPan="magnify" viewBox="0 0 30 30.000001" height="40" preserveAspectRatio="xMidYMid meet" version="1.0"><defs><clipPath id="82cc24031c"><path d="M 5.691406 0.683594 L 24.5625 0.683594 L 24.5625 28.265625 L 5.691406 28.265625 Z M 5.691406 0.683594 " clip-rule="nonzero"/></clipPath></defs><g clip-path="url(#82cc24031c)"><path fill="#ffba08" d="M 24.300781 4.296875 L 23.816406 4.21875 L 22.183594 3.941406 L 22.21875 3.257812 L 22.238281 2.875 L 21.863281 2.773438 L 20.09375 2.300781 L 19.933594 2.257812 L 19.945312 1.582031 L 19.953125 1.238281 L 19.632812 1.121094 L 18.511719 0.722656 L 18.410156 0.6875 L 18.304688 0.699219 L 16.964844 0.835938 L 16.546875 0.882812 L 16.539062 1.300781 L 16.503906 2.941406 L 16.453125 2.933594 L 16.402344 2.929688 L 16.351562 2.933594 L 15.738281 3 L 15.796875 1.496094 L 15.816406 1.015625 L 15.335938 1 L 13.570312 0.953125 L 13.417969 0.949219 L 13.289062 1.039062 L 12.164062 1.804688 L 11.945312 1.953125 L 11.957031 2.214844 L 11.964844 2.402344 L 11.746094 1.449219 L 11.675781 1.160156 L 11.386719 1.09375 L 10.527344 0.898438 L 10.410156 0.875 L 10.296875 0.90625 L 8.785156 1.3125 L 8.363281 1.425781 L 8.441406 1.859375 L 8.75 3.488281 L 7.289062 3.539062 L 7.148438 3.542969 L 7.03125 3.625 L 5.941406 4.390625 L 5.691406 4.566406 L 5.746094 4.867188 L 6.550781 9.242188 L 6.171875 9.402344 L 5.832031 9.550781 L 5.890625 9.917969 L 7.761719 21.410156 C 7.839844 21.867188 7.910156 22.292969 7.972656 22.683594 C 8.011719 22.933594 8.050781 23.171875 8.089844 23.390625 L 8.347656 25 L 8.394531 25.28125 L 8.664062 25.371094 L 17.132812 28.257812 L 17.378906 28.339844 L 17.585938 28.175781 L 22.703125 24.089844 L 22.867188 23.957031 L 22.882812 23.75 L 23.867188 9.152344 L 23.894531 8.773438 L 23.53125 8.664062 L 23.433594 8.636719 L 24.207031 4.78125 Z M 17.53125 27.308594 L 17.574219 23.347656 L 17.085938 27.488281 L 9.027344 24.742188 L 6.648438 10.136719 L 6.96875 10.195312 L 6.96875 10.199219 L 8.328125 10.445312 L 9.183594 13.554688 L 9.644531 13.660156 L 12.738281 14.375 L 12.921875 14.417969 L 13.109375 14.460938 L 13.398438 14.53125 L 13.398438 14.527344 L 14.558594 14.792969 L 14.898438 14.871094 L 15.898438 12.539062 L 16.089844 12.09375 L 18.046875 12.527344 L 17.96875 17.28125 L 18.511719 12.476562 L 18.515625 12.472656 L 19.265625 12.007812 L 19.371094 11.976562 L 19.371094 11.933594 L 19.589844 11.796875 L 19.96875 11.558594 L 20.078125 11.523438 L 20.085938 11.484375 L 22.9375 9.6875 L 23.121094 9.570312 L 22.179688 23.597656 Z M 10.265625 1.652344 L 10.824219 3.457031 L 10.683594 1.667969 L 11.082031 1.757812 L 11.5625 3.816406 L 10.871094 3.765625 L 9.667969 4.492188 L 9.183594 1.941406 Z M 14.640625 1.695312 L 14.082031 2.128906 L 13.105469 2.027344 L 13.628906 1.671875 Z M 13.9375 2.589844 L 14.277344 5.84375 L 14.386719 2.496094 L 15.066406 1.972656 L 15.011719 3.320312 L 14.765625 3.351562 L 14.871094 6.214844 L 14.234375 6.199219 L 12.878906 6.988281 L 12.949219 3.917969 L 12.742188 3.902344 L 12.683594 2.460938 Z M 16.558594 6.992188 L 16.628906 3.671875 L 16.726562 3.679688 L 16.726562 3.683594 C 16.726562 3.683594 17.011719 3.710938 17.011719 3.710938 L 17.085938 5.914062 L 16.96875 5.972656 L 15.914062 11.566406 L 15.847656 11.550781 L 16.050781 6.246094 L 15.347656 6.226562 L 15.253906 3.773438 L 16.1875 3.671875 Z M 18.121094 1.433594 L 18.199219 5.011719 L 18.558594 1.496094 L 19.230469 1.738281 L 19.203125 2.949219 L 18.574219 3.328125 L 18.496094 5.226562 L 17.550781 5.683594 L 17.472656 3.277344 L 17.210938 3.25 L 17.246094 1.527344 Z M 7.378906 9.789062 L 6.5 5.027344 L 7.875 5.058594 L 9.464844 10.515625 L 8.308594 4.894531 L 8.726562 4.453125 L 9.847656 9.375 L 10.160156 13.292969 L 9.566406 13.15625 L 8.707031 10.03125 Z M 11.40625 5.125 L 11.769531 10.789062 L 11.867188 5.03125 L 12.457031 4.609375 L 12.25 13.769531 L 11.457031 13.589844 L 10.644531 13.402344 L 10.132812 6.972656 C 10.132812 6.972656 9.976562 5.003906 9.976562 5.003906 Z M 16.378906 11.667969 L 17.367188 6.4375 L 18.789062 6.855469 L 18.511719 10.667969 L 19.25 6.847656 L 19.921875 6.542969 L 18.925781 11.652344 L 18.242188 12.082031 L 17.5 11.917969 Z M 19.023438 6.425781 L 17.832031 6.078125 L 18.609375 5.703125 L 18.628906 5.710938 L 18.949219 5.851562 L 18.949219 5.847656 L 19.648438 6.144531 Z M 20.457031 6.285156 L 19.625 11.210938 L 19.476562 11.304688 Z M 20.890625 4.847656 L 21.066406 4.015625 L 21.480469 3.714844 L 21.445312 4.410156 Z M 20.625 4.074219 L 20.667969 5.03125 L 20.507812 5.992188 L 18.96875 5.335938 L 19.03125 3.753906 Z M 14.617188 14.316406 L 13.394531 14.039062 L 13.34375 7.425781 L 14.484375 7.65625 L 14.742188 12.246094 L 14.945312 7.566406 L 15.542969 7.027344 L 15.328125 12.664062 L 14.992188 13.441406 Z M 15.199219 6.699219 L 14.640625 7.199219 L 13.761719 7.023438 L 14.359375 6.675781 Z M 12.722656 13.882812 L 12.871094 7.398438 L 12.917969 13.925781 L 12.894531 13.921875 Z M 22.554688 9.367188 L 22.421875 9.449219 L 20.1875 10.855469 L 21.097656 5.355469 L 22.453125 5.546875 L 22.039062 9.039062 L 22.921875 5.492188 L 23.394531 5.1875 Z M 22.660156 5.09375 L 21.542969 4.9375 L 21.90625 4.652344 C 21.90625 4.652344 21.941406 4.625 21.941406 4.625 L 23.089844 4.816406 Z M 21.195312 3.335938 L 20.796875 3.621094 L 19.457031 3.355469 L 19.671875 3.226562 L 19.671875 3.222656 L 20.007812 3.019531 Z M 12.027344 4.332031 L 11.566406 4.664062 L 10.460938 4.566406 L 10.984375 4.25 Z M 8.292969 4.21875 L 7.953125 4.582031 L 6.941406 4.558594 L 7.382812 4.25 Z M 8.292969 4.21875 " fill-opacity="1" fill-rule="nonzero"/></g></svg>