<svg xmlns="http://www.w3.org/2000/svg" xmlns:xlink="http://www.w3.org/1999/xlink" width="40" zoomAndPan="magnify" viewBox="0 0 30 30.000001" height="40" preserveAspectRatio="xMidYMid meet" version="1.0"><defs><clipPath id="2da5ec7fce"><path d="M 1.167969 0.582031 L 28.75 0.582031 L 28.75 28.164062 L 1.167969 28.164062 Z M 1.167969 0.582031 " clip-rule="nonzero"/></clipPath></defs><path fill="#ffba08" d="M 4.207031 8.714844 C 3.710938 8.714844 3.308594 9.117188 3.308594 9.613281 C 3.308594 10.109375 3.710938 10.511719 4.207031 10.511719 C 4.699219 10.511719 5.105469 10.109375 5.105469 9.613281 C 5.105469 9.117188 4.703125 8.714844 4.207031 8.714844 Z M 4.207031 10.070312 C 3.953125 10.070312 3.75 9.863281 3.75 9.613281 C 3.75 9.359375 3.953125 9.15625 4.207031 9.15625 C 4.457031 9.15625 4.664062 9.359375 4.664062 9.613281 C 4.664062 9.863281 4.457031 10.070312 4.207031 10.070312 Z M 4.207031 10.070312 " fill-opacity="1" fill-rule="nonzero"/><path fill="#ffba08" d="M 6.207031 8.914062 C 5.820312 8.914062 5.503906 9.226562 5.503906 9.613281 C 5.503906 10 5.820312 10.3125 6.207031 10.3125 C 6.589844 10.3125 6.90625 10 6.90625 9.613281 C 6.90625 9.226562 6.589844 8.914062 6.207031 8.914062 Z M 6.207031 9.871094 C 6.0625 9.871094 5.945312 9.753906 5.945312 9.613281 C 5.945312 9.46875 6.0625 9.355469 6.207031 9.355469 C 6.347656 9.355469 6.464844 9.46875 6.464844 9.613281 C 6.464844 9.753906 6.347656 9.871094 6.207031 9.871094 Z M 6.207031 9.871094 " fill-opacity="1" fill-rule="nonzero"/><path fill="#ffba08" d="M 10.695312 18.371094 L 10.425781 18.371094 C 10.320312 18.101562 10.386719 17.839844 10.457031 17.585938 C 10.53125 17.304688 10.613281 16.988281 10.382812 16.738281 C 10.222656 16.566406 9.90625 16.421875 9.300781 16.710938 C 9.25 16.734375 9.191406 16.730469 9.144531 16.695312 C 9.039062 16.609375 8.902344 16.550781 8.742188 16.523438 C 8.515625 16.480469 8.207031 16.53125 7.828125 16.675781 C 7.777344 16.695312 7.71875 16.683594 7.679688 16.648438 C 7.277344 16.285156 6.863281 16.195312 6.515625 16.402344 C 6.113281 16.640625 6.121094 17.066406 6.128906 17.441406 C 6.136719 17.816406 6.140625 18.140625 5.820312 18.367188 L 5.125 18.367188 C 5.003906 18.367188 4.90625 18.46875 4.90625 18.589844 C 4.90625 18.710938 5.003906 18.8125 5.125 18.8125 L 10.695312 18.8125 C 10.820312 18.8125 10.917969 18.710938 10.917969 18.589844 C 10.917969 18.46875 10.820312 18.371094 10.695312 18.371094 Z M 6.570312 17.429688 C 6.5625 17.054688 6.578125 16.878906 6.742188 16.78125 C 6.957031 16.65625 7.207031 16.816406 7.382812 16.976562 C 7.546875 17.125 7.777344 17.167969 7.984375 17.089844 C 8.273438 16.980469 8.519531 16.933594 8.664062 16.957031 C 8.753906 16.972656 8.824219 17.003906 8.875 17.042969 C 9.050781 17.179688 9.289062 17.207031 9.492188 17.109375 C 9.765625 16.976562 9.980469 16.953125 10.0625 17.039062 C 10.121094 17.105469 10.089844 17.246094 10.027344 17.472656 C 9.964844 17.714844 9.882812 18.03125 9.960938 18.367188 L 9.617188 18.367188 C 9.496094 18.105469 9.464844 17.933594 9.488281 17.6875 C 9.496094 17.566406 9.40625 17.460938 9.285156 17.449219 C 9.160156 17.4375 9.054688 17.53125 9.046875 17.652344 C 9.023438 17.910156 9.050781 18.121094 9.140625 18.367188 L 8.421875 18.367188 C 8.535156 18.09375 8.578125 17.8125 8.546875 17.53125 C 8.53125 17.410156 8.421875 17.324219 8.300781 17.339844 C 8.179688 17.351562 8.09375 17.460938 8.105469 17.582031 C 8.136719 17.84375 8.074219 18.101562 7.925781 18.367188 L 7.28125 18.367188 C 7.402344 18.066406 7.429688 17.757812 7.367188 17.453125 C 7.34375 17.335938 7.226562 17.257812 7.105469 17.28125 C 6.988281 17.304688 6.910156 17.421875 6.933594 17.542969 C 6.992188 17.816406 6.941406 18.089844 6.792969 18.367188 L 6.410156 18.367188 C 6.585938 18.058594 6.578125 17.710938 6.570312 17.429688 Z M 6.570312 17.429688 " fill-opacity="1" fill-rule="nonzero"/><g clip-path="url(#2da5ec7fce)"><path fill="#ffba08" d="M 27.125 15.265625 C 27.046875 15.199219 27.003906 15.105469 27.003906 15.011719 L 27.003906 13.445312 C 28.195312 12.304688 28.441406 10.59375 28.441406 8.386719 C 28.441406 8.359375 28.4375 8.332031 28.429688 8.308594 C 28.425781 8.300781 28.421875 8.296875 28.421875 8.289062 C 28.417969 8.285156 28.414062 8.277344 28.414062 8.273438 C 27.746094 7.140625 26.996094 6.152344 26.175781 5.316406 C 26.167969 5.308594 26.160156 5.304688 26.152344 5.296875 C 25.683594 4.824219 25.195312 4.394531 24.679688 4.023438 C 24.632812 3.988281 24.605469 3.9375 24.605469 3.882812 L 24.605469 3.269531 L 24.792969 3.269531 C 24.914062 3.269531 25.015625 3.171875 25.015625 3.046875 L 25.015625 0.832031 C 25.015625 0.710938 24.914062 0.609375 24.792969 0.609375 L 20.394531 0.609375 C 20.269531 0.609375 20.171875 0.710938 20.171875 0.832031 L 20.171875 3.046875 C 20.171875 3.167969 20.269531 3.269531 20.394531 3.269531 L 20.578125 3.269531 L 20.578125 3.882812 C 20.578125 3.9375 20.550781 3.988281 20.503906 4.023438 C 20.085938 4.328125 19.683594 4.671875 19.292969 5.042969 C 19.285156 5.03125 19.273438 5.023438 19.261719 5.011719 C 19.257812 5.003906 19.25 4.996094 19.242188 4.988281 C 18.804688 4.546875 18.34375 4.144531 17.859375 3.792969 C 17.820312 3.765625 17.796875 3.722656 17.796875 3.675781 L 17.796875 3.113281 L 17.957031 3.113281 C 18.078125 3.113281 18.179688 3.015625 18.179688 2.894531 L 18.179688 0.816406 C 18.179688 0.695312 18.078125 0.597656 17.957031 0.597656 L 13.835938 0.597656 C 13.714844 0.597656 13.617188 0.695312 13.617188 0.816406 L 13.617188 2.894531 C 13.617188 3.015625 13.714844 3.113281 13.835938 3.113281 L 13.996094 3.113281 L 13.996094 3.675781 C 13.996094 3.722656 13.972656 3.765625 13.933594 3.792969 C 13.449219 4.144531 12.988281 4.546875 12.550781 4.992188 C 12.542969 4.996094 12.539062 5 12.535156 5.007812 C 12.117188 5.433594 11.71875 5.902344 11.34375 6.40625 L 9.386719 4.753906 C 9.191406 4.585938 9.078125 4.34375 9.078125 4.085938 L 9.078125 3.84375 L 9.199219 3.84375 C 9.320312 3.84375 9.421875 3.742188 9.421875 3.621094 L 9.421875 1.484375 C 9.421875 1.359375 9.320312 1.261719 9.199219 1.261719 L 5.738281 1.261719 C 5.617188 1.261719 5.515625 1.359375 5.515625 1.484375 L 5.515625 3.621094 C 5.515625 3.742188 5.617188 3.84375 5.738281 3.84375 L 5.859375 3.84375 L 5.859375 4.085938 C 5.859375 4.34375 5.746094 4.585938 5.550781 4.753906 L 1.910156 7.835938 C 1.632812 8.070312 1.464844 8.414062 1.445312 8.777344 L 1.191406 14.207031 C 1.175781 14.582031 1.316406 14.945312 1.582031 15.207031 L 2.1875 15.804688 L 2.1875 19.382812 L 1.695312 20.039062 C 1.527344 20.265625 1.433594 20.546875 1.433594 20.828125 L 1.433594 26.136719 C 1.433594 26.433594 1.535156 26.726562 1.722656 26.957031 L 2.160156 27.507812 C 2.410156 27.820312 2.785156 28 3.1875 28 L 11.75 28 C 12.152344 28 12.527344 27.820312 12.777344 27.507812 L 13.214844 26.957031 C 13.285156 26.875 13.339844 26.777344 13.382812 26.679688 C 13.988281 26.609375 14.242188 26.136719 14.316406 25.765625 L 14.570312 25.765625 C 14.671875 26.285156 15.136719 26.683594 15.6875 26.683594 L 16.105469 26.683594 C 16.429688 26.683594 16.726562 26.542969 16.9375 26.316406 C 17.695312 27.519531 18.992188 28.433594 19.714844 28.433594 C 20.476562 28.433594 20.792969 27.875 20.886719 27.453125 L 21.1875 27.453125 C 21.292969 28.011719 21.78125 28.433594 22.367188 28.433594 L 22.816406 28.433594 C 23.402344 28.433594 23.894531 28.011719 23.996094 27.453125 L 24.300781 27.453125 C 24.390625 27.875 24.707031 28.433594 25.46875 28.433594 C 26.527344 28.433594 28.835938 26.464844 28.835938 24.511719 L 28.835938 18.953125 C 28.835938 17.484375 28.273438 16.277344 27.125 15.265625 Z M 17.828125 12.242188 C 17.335938 11.300781 17.199219 10.078125 17.1875 8.605469 L 26.023438 8.605469 C 24.785156 9.109375 23.789062 9.960938 22.929688 10.695312 C 21.960938 11.527344 21.125 12.242188 20.269531 12.242188 Z M 16.351562 20.871094 L 14.429688 20.871094 L 14.429688 19.566406 L 16.351562 19.566406 Z M 16.351562 18.953125 L 16.351562 19.125 L 14.207031 19.125 C 14.085938 19.125 13.988281 19.222656 13.988281 19.347656 L 13.988281 21.09375 C 13.988281 21.214844 14.085938 21.3125 14.207031 21.3125 L 16.351562 21.3125 L 16.351562 21.902344 L 13.503906 21.902344 L 13.503906 20.828125 C 13.503906 20.546875 13.410156 20.265625 13.242188 20.039062 L 12.75 19.382812 L 12.75 16.734375 L 16.875 16.734375 C 16.523438 17.402344 16.351562 18.136719 16.351562 18.953125 Z M 2.628906 19.234375 L 2.628906 15.933594 L 12.308594 15.933594 L 12.308594 19.234375 Z M 11.546875 19.675781 C 12.078125 21.4375 12.257812 23.21875 12.089844 25.121094 C 12.042969 25.679688 11.5625 26.113281 11 26.113281 L 3.9375 26.113281 C 3.375 26.113281 2.894531 25.679688 2.847656 25.121094 C 2.679688 23.21875 2.859375 21.4375 3.390625 19.675781 Z M 3.308594 15.492188 C 2.738281 13.738281 2.601562 11.570312 2.921875 9.203125 C 2.992188 8.679688 3.441406 8.28125 3.96875 8.28125 L 10.96875 8.28125 C 11.496094 8.28125 11.945312 8.679688 12.015625 9.203125 C 12.335938 11.570312 12.199219 13.738281 11.628906 15.492188 Z M 17.140625 16.292969 L 12.75 16.292969 L 12.75 15.804688 L 13.355469 15.207031 C 13.621094 14.945312 13.761719 14.578125 13.746094 14.207031 L 13.640625 11.929688 L 17.203125 11.929688 C 17.285156 12.148438 17.382812 12.351562 17.492188 12.546875 C 17.675781 12.878906 17.902344 13.179688 18.183594 13.445312 L 18.183594 15.011719 C 18.183594 15.105469 18.136719 15.199219 18.0625 15.265625 C 17.695312 15.589844 17.390625 15.929688 17.140625 16.292969 Z M 19.273438 5.683594 L 25.914062 5.683594 C 26.605469 6.398438 27.246094 7.226562 27.824219 8.164062 L 17.359375 8.164062 C 17.941406 7.226562 18.578125 6.398438 19.273438 5.683594 Z M 16.773438 8.273438 C 16.769531 8.277344 16.769531 8.285156 16.765625 8.289062 C 16.761719 8.296875 16.761719 8.300781 16.757812 8.308594 C 16.75 8.332031 16.742188 8.359375 16.742188 8.386719 C 16.742188 9.566406 16.816406 10.601562 17.0625 11.488281 L 13.617188 11.488281 L 13.492188 8.777344 C 13.480469 8.539062 13.402344 8.308594 13.273438 8.113281 L 16.871094 8.113281 C 16.839844 8.167969 16.804688 8.21875 16.773438 8.273438 Z M 23.214844 11.03125 C 24.5 9.933594 25.949219 8.699219 28 8.613281 C 27.988281 10.082031 27.847656 11.300781 27.355469 12.242188 L 21.652344 12.242188 C 22.160156 11.933594 22.667969 11.5 23.214844 11.03125 Z M 20.613281 2.828125 L 20.613281 2.363281 L 24.570312 2.363281 L 24.570312 2.828125 Z M 22.8125 1.921875 L 22.8125 1.050781 L 23.429688 1.050781 L 23.429688 1.921875 Z M 22.371094 1.921875 L 21.757812 1.921875 L 21.757812 1.050781 L 22.371094 1.050781 Z M 24.570312 1.921875 L 23.871094 1.921875 L 23.871094 1.050781 L 24.570312 1.050781 Z M 21.316406 1.050781 L 21.316406 1.921875 L 20.613281 1.921875 L 20.613281 1.050781 Z M 20.765625 4.378906 C 20.925781 4.261719 21.019531 4.078125 21.019531 3.882812 L 21.019531 3.269531 L 24.164062 3.269531 L 24.164062 3.882812 C 24.164062 4.078125 24.261719 4.261719 24.421875 4.378906 C 24.777344 4.640625 25.125 4.929688 25.460938 5.242188 L 19.722656 5.242188 C 20.058594 4.929688 20.40625 4.640625 20.765625 4.378906 Z M 14.058594 2.671875 L 14.058594 2.265625 L 17.738281 2.265625 L 17.738281 2.671875 Z M 16.117188 1.824219 L 16.117188 1.039062 L 16.664062 1.039062 L 16.664062 1.824219 Z M 15.675781 1.824219 L 15.128906 1.824219 L 15.128906 1.039062 L 15.675781 1.039062 Z M 17.738281 1.824219 L 17.105469 1.824219 L 17.105469 1.039062 L 17.738281 1.039062 Z M 14.6875 1.039062 L 14.6875 1.824219 L 14.058594 1.824219 L 14.058594 1.039062 Z M 14.195312 4.152344 C 14.347656 4.039062 14.4375 3.859375 14.4375 3.671875 L 14.4375 3.113281 L 17.355469 3.113281 L 17.355469 3.671875 C 17.355469 3.859375 17.445312 4.039062 17.601562 4.152344 C 17.925781 4.386719 18.242188 4.652344 18.546875 4.933594 L 13.246094 4.933594 C 13.550781 4.652344 13.867188 4.386719 14.195312 4.152344 Z M 12.789062 5.375 L 18.953125 5.375 C 18.304688 6.046875 17.699219 6.8125 17.144531 7.671875 L 12.832031 7.671875 L 11.679688 6.695312 C 12.03125 6.21875 12.402344 5.777344 12.789062 5.375 Z M 5.960938 3.402344 L 5.960938 2.914062 L 8.976562 2.914062 L 8.976562 3.402344 Z M 8.976562 1.703125 L 8.976562 2.472656 L 5.960938 2.472656 L 5.960938 1.703125 Z M 1.890625 14.890625 C 1.714844 14.71875 1.621094 14.476562 1.632812 14.230469 L 1.886719 8.796875 C 1.898438 8.554688 2.011719 8.328125 2.195312 8.171875 L 5.835938 5.089844 C 6.132812 4.839844 6.300781 4.472656 6.300781 4.085938 L 6.300781 3.84375 L 8.636719 3.84375 L 8.636719 4.085938 C 8.636719 4.472656 8.804688 4.839844 9.101562 5.089844 L 12.742188 8.171875 C 12.925781 8.328125 13.039062 8.554688 13.050781 8.796875 L 13.304688 14.230469 C 13.316406 14.476562 13.222656 14.71875 13.046875 14.890625 L 12.4375 15.492188 L 12.089844 15.492188 C 12.644531 13.699219 12.777344 11.515625 12.453125 9.144531 C 12.355469 8.402344 11.714844 7.839844 10.96875 7.839844 L 3.96875 7.839844 C 3.222656 7.839844 2.582031 8.402344 2.484375 9.144531 C 2.160156 11.515625 2.292969 13.699219 2.847656 15.492188 L 2.5 15.492188 Z M 12.433594 27.230469 C 12.265625 27.441406 12.015625 27.558594 11.75 27.558594 L 3.1875 27.558594 C 2.921875 27.558594 2.671875 27.441406 2.503906 27.230469 L 2.066406 26.683594 C 1.941406 26.527344 1.875 26.335938 1.875 26.136719 L 1.875 20.828125 C 1.875 20.640625 1.9375 20.453125 2.050781 20.304688 L 2.519531 19.675781 L 2.933594 19.675781 C 2.410156 21.453125 2.238281 23.25 2.40625 25.160156 C 2.476562 25.957031 3.132812 26.554688 3.9375 26.554688 L 11 26.554688 C 11.800781 26.554688 12.460938 25.957031 12.53125 25.160156 C 12.699219 23.25 12.527344 21.453125 12.003906 19.675781 L 12.417969 19.675781 L 12.886719 20.304688 C 13 20.453125 13.0625 20.640625 13.0625 20.828125 L 13.0625 26.136719 C 13.0625 26.335938 12.996094 26.527344 12.871094 26.683594 Z M 16.105469 26.242188 L 15.6875 26.242188 C 15.304688 26.242188 14.992188 25.925781 14.992188 25.542969 C 14.992188 25.421875 14.890625 25.324219 14.769531 25.324219 L 14.121094 25.324219 C 14 25.324219 13.902344 25.417969 13.898438 25.539062 C 13.898438 25.597656 13.871094 26.050781 13.5 26.203125 C 13.5 26.179688 13.503906 26.160156 13.503906 26.136719 L 13.503906 22.34375 L 16.351562 22.34375 L 16.351562 24.511719 C 16.351562 24.980469 16.484375 25.453125 16.703125 25.898438 C 16.582031 26.109375 16.355469 26.242188 16.105469 26.242188 Z M 28.394531 24.511719 C 28.394531 26.261719 26.246094 27.992188 25.472656 27.992188 C 24.777344 27.992188 24.714844 27.296875 24.710938 27.222656 C 24.707031 27.101562 24.609375 27.011719 24.492188 27.011719 L 23.796875 27.011719 C 23.675781 27.011719 23.574219 27.109375 23.574219 27.234375 C 23.574219 27.652344 23.234375 27.992188 22.816406 27.992188 L 22.371094 27.992188 C 21.949219 27.992188 21.609375 27.652344 21.609375 27.234375 C 21.609375 27.109375 21.511719 27.011719 21.390625 27.011719 L 20.695312 27.011719 C 20.578125 27.011719 20.480469 27.101562 20.472656 27.222656 C 20.472656 27.253906 20.425781 27.992188 19.714844 27.992188 C 19.140625 27.992188 17.808594 27.035156 17.160156 25.828125 C 17.152344 25.808594 17.144531 25.792969 17.132812 25.777344 C 16.921875 25.371094 16.792969 24.941406 16.792969 24.511719 L 16.792969 18.953125 C 16.792969 17.621094 17.304688 16.519531 18.355469 15.597656 C 18.527344 15.449219 18.625 15.234375 18.625 15.011719 L 18.625 13.351562 C 18.625 13.289062 18.597656 13.230469 18.550781 13.1875 C 18.382812 13.03125 18.234375 12.863281 18.101562 12.683594 L 27.082031 12.683594 C 26.953125 12.863281 26.804688 13.03125 26.632812 13.1875 C 26.589844 13.230469 26.5625 13.289062 26.5625 13.351562 L 26.5625 15.011719 C 26.5625 15.234375 26.660156 15.449219 26.832031 15.597656 C 27.882812 16.523438 28.394531 17.621094 28.394531 18.953125 Z M 28.394531 24.511719 " fill-opacity="1" fill-rule="nonzero"/></g><path fill="#ffba08" d="M 15.785156 22.6875 C 15.664062 22.6875 15.5625 22.785156 15.5625 22.910156 L 15.5625 24.867188 C 15.5625 24.988281 15.664062 25.085938 15.785156 25.085938 C 15.90625 25.085938 16.003906 24.988281 16.003906 24.867188 L 16.003906 22.910156 C 16.003906 22.785156 15.90625 22.6875 15.785156 22.6875 Z M 15.785156 22.6875 " fill-opacity="1" fill-rule="nonzero"/><path fill="#ffba08" d="M 13.234375 7.238281 C 13.625 7.238281 13.945312 6.917969 13.945312 6.527344 C 13.945312 6.132812 13.625 5.816406 13.234375 5.816406 C 12.84375 5.816406 12.523438 6.132812 12.523438 6.527344 C 12.523438 6.917969 12.84375 7.238281 13.234375 7.238281 Z M 13.234375 6.257812 C 13.382812 6.257812 13.503906 6.378906 13.503906 6.527344 C 13.503906 6.675781 13.382812 6.796875 13.234375 6.796875 C 13.085938 6.796875 12.964844 6.675781 12.964844 6.527344 C 12.964844 6.378906 13.085938 6.257812 13.234375 6.257812 Z M 13.234375 6.257812 " fill-opacity="1" fill-rule="nonzero"/><path fill="#ffba08" d="M 21.269531 7.910156 C 21.660156 7.910156 21.980469 7.589844 21.980469 7.199219 C 21.980469 6.804688 21.660156 6.488281 21.269531 6.488281 C 20.878906 6.488281 20.558594 6.804688 20.558594 7.199219 C 20.558594 7.589844 20.878906 7.910156 21.269531 7.910156 Z M 21.269531 6.929688 C 21.417969 6.929688 21.539062 7.050781 21.539062 7.199219 C 21.539062 7.347656 21.417969 7.464844 21.269531 7.464844 C 21.121094 7.464844 21 7.347656 21 7.199219 C 21 7.050781 21.121094 6.929688 21.269531 6.929688 Z M 21.269531 6.929688 " fill-opacity="1" fill-rule="nonzero"/><path fill="#ffba08" d="M 25.414062 13.324219 C 25.019531 13.324219 24.703125 13.644531 24.703125 14.035156 C 24.703125 14.429688 25.019531 14.746094 25.414062 14.746094 C 25.804688 14.746094 26.125 14.429688 26.125 14.035156 C 26.125 13.644531 25.804688 13.324219 25.414062 13.324219 Z M 25.414062 14.304688 C 25.265625 14.304688 25.144531 14.183594 25.144531 14.035156 C 25.144531 13.886719 25.265625 13.765625 25.414062 13.765625 C 25.5625 13.765625 25.679688 13.886719 25.679688 14.035156 C 25.679688 14.183594 25.5625 14.304688 25.414062 14.304688 Z M 25.414062 14.304688 " fill-opacity="1" fill-rule="nonzero"/><path fill="#ffba08" d="M 25.066406 15.390625 C 24.554688 15.390625 24.140625 15.804688 24.140625 16.316406 C 24.140625 16.828125 24.554688 17.246094 25.066406 17.246094 C 25.578125 17.246094 25.996094 16.828125 25.996094 16.316406 C 25.996094 15.804688 25.578125 15.390625 25.066406 15.390625 Z M 25.066406 16.804688 C 24.800781 16.804688 24.582031 16.585938 24.582031 16.316406 C 24.582031 16.050781 24.800781 15.832031 25.066406 15.832031 C 25.335938 15.832031 25.554688 16.050781 25.554688 16.316406 C 25.554688 16.585938 25.335938 16.804688 25.066406 16.804688 Z M 25.066406 16.804688 " fill-opacity="1" fill-rule="nonzero"/><path fill="#ffba08" d="M 14.855469 6.929688 C 15.195312 6.929688 15.472656 6.652344 15.472656 6.3125 C 15.472656 5.96875 15.195312 5.691406 14.855469 5.691406 C 14.515625 5.691406 14.238281 5.96875 14.238281 6.3125 C 14.238281 6.652344 14.515625 6.929688 14.855469 6.929688 Z M 14.855469 6.132812 C 14.953125 6.132812 15.03125 6.214844 15.03125 6.3125 C 15.03125 6.40625 14.953125 6.488281 14.855469 6.488281 C 14.757812 6.488281 14.679688 6.40625 14.679688 6.3125 C 14.679688 6.214844 14.757812 6.132812 14.855469 6.132812 Z M 14.855469 6.132812 " fill-opacity="1" fill-rule="nonzero"/><path fill="#ffba08" d="M 19.730469 7.238281 C 20.070312 7.238281 20.347656 6.960938 20.347656 6.617188 C 20.347656 6.277344 20.070312 6 19.730469 6 C 19.386719 6 19.109375 6.277344 19.109375 6.617188 C 19.109375 6.960938 19.386719 7.238281 19.730469 7.238281 Z M 19.730469 6.441406 C 19.824219 6.441406 19.90625 6.523438 19.90625 6.617188 C 19.90625 6.714844 19.824219 6.792969 19.730469 6.792969 C 19.632812 6.792969 19.554688 6.714844 19.554688 6.617188 C 19.554688 6.523438 19.632812 6.441406 19.730469 6.441406 Z M 19.730469 6.441406 " fill-opacity="1" fill-rule="nonzero"/></svg>