<svg xmlns="http://www.w3.org/2000/svg" xmlns:xlink="http://www.w3.org/1999/xlink" width="40" zoomAndPan="magnify" viewBox="0 0 30 30.000001" height="40" preserveAspectRatio="xMidYMid meet" version="1.0"><defs><clipPath id="0b1bdec608"><path d="M 0.484375 3.277344 L 29.515625 3.277344 L 29.515625 25.773438 L 0.484375 25.773438 Z M 0.484375 3.277344 " clip-rule="nonzero"/></clipPath></defs><g clip-path="url(#0b1bdec608)"><path fill="#ffba08" d="M 21.828125 7.414062 C 22.359375 7.414062 22.359375 6.589844 21.828125 6.589844 C 21.300781 6.589844 21.300781 7.414062 21.828125 7.414062 Z M 8.507812 7.285156 C 9.035156 7.285156 9.035156 6.464844 8.507812 6.464844 C 7.980469 6.464844 7.976562 7.285156 8.507812 7.285156 Z M 6.4375 10.410156 C 6.964844 10.410156 6.964844 9.585938 6.4375 9.585938 C 5.90625 9.585938 5.90625 10.410156 6.4375 10.410156 Z M 12.425781 8.738281 C 12.957031 8.738281 12.957031 7.917969 12.425781 7.917969 C 11.898438 7.917969 11.898438 8.738281 12.425781 8.738281 Z M 13.828125 5.339844 C 14.359375 5.339844 14.359375 4.519531 13.828125 4.519531 C 13.300781 4.519531 13.300781 5.339844 13.828125 5.339844 Z M 20.90625 10.566406 C 21.433594 10.566406 21.4375 9.746094 20.90625 9.746094 C 20.375 9.746094 20.375 10.566406 20.90625 10.566406 Z M 18.261719 6.234375 C 18.789062 6.234375 18.789062 5.410156 18.261719 5.410156 C 17.730469 5.410156 17.730469 6.234375 18.261719 6.234375 Z M 15 4.097656 C 8.40625 4.097656 3.042969 7.402344 3.042969 11.460938 L 3.042969 11.816406 C 3.042969 12.226562 3.375 12.558594 3.785156 12.558594 L 26.214844 12.558594 C 26.625 12.558594 26.957031 12.226562 26.957031 11.816406 L 26.957031 11.460938 C 26.957031 7.402344 21.59375 4.097656 15 4.097656 Z M 26.214844 13.378906 L 3.785156 13.378906 C 2.921875 13.378906 2.222656 12.679688 2.222656 11.816406 L 2.222656 11.460938 C 2.222656 9.238281 3.578125 7.164062 6.035156 5.617188 C 8.4375 4.105469 11.621094 3.277344 15 3.277344 C 18.378906 3.277344 21.5625 4.105469 23.964844 5.617188 C 26.425781 7.164062 27.777344 9.238281 27.777344 11.460938 L 27.777344 11.816406 C 27.777344 12.679688 27.078125 13.378906 26.214844 13.378906 Z M 28.367188 14.796875 C 28.421875 14.753906 28.40625 14.769531 28.34375 14.808594 C 28.257812 14.867188 28.171875 14.921875 28.082031 14.972656 C 27.8125 15.117188 27.519531 15.226562 27.214844 15.277344 C 26.761719 15.351562 26.304688 15.28125 25.890625 15.082031 C 25.425781 14.855469 25.0625 14.480469 24.582031 14.277344 C 23.582031 13.847656 22.371094 14.058594 21.554688 14.78125 C 21.546875 14.789062 21.53125 14.800781 21.515625 14.808594 C 21.429688 14.867188 21.339844 14.921875 21.25 14.972656 C 20.980469 15.117188 20.6875 15.226562 20.386719 15.277344 C 19.933594 15.351562 19.472656 15.28125 19.0625 15.082031 C 18.597656 14.855469 18.234375 14.480469 17.753906 14.277344 C 16.753906 13.847656 15.539062 14.058594 14.726562 14.78125 C 14.714844 14.789062 14.703125 14.800781 14.683594 14.808594 C 14.597656 14.867188 14.511719 14.921875 14.421875 14.972656 C 14.152344 15.117188 13.859375 15.226562 13.554688 15.277344 C 13.105469 15.351562 12.644531 15.28125 12.234375 15.082031 C 11.765625 14.855469 11.40625 14.480469 10.925781 14.277344 C 9.921875 13.847656 8.710938 14.058594 7.894531 14.78125 C 7.886719 14.789062 7.875 14.800781 7.855469 14.808594 C 7.769531 14.867188 7.683594 14.921875 7.589844 14.972656 C 7.324219 15.117188 7.027344 15.226562 6.726562 15.277344 C 6.273438 15.351562 5.8125 15.28125 5.402344 15.082031 C 4.9375 14.855469 4.574219 14.480469 4.09375 14.277344 C 3.085938 13.847656 1.863281 14.058594 1.050781 14.796875 C 0.65625 15.152344 1.238281 15.730469 1.632812 15.375 C 1.878906 15.152344 2.300781 14.960938 2.660156 14.898438 C 3.71875 14.707031 4.332031 15.527344 5.21875 15.898438 C 6.292969 16.34375 7.5625 16.09375 8.460938 15.375 C 8.710938 15.152344 9.128906 14.960938 9.492188 14.898438 C 10.550781 14.707031 11.164062 15.527344 12.050781 15.898438 C 13.121094 16.34375 14.390625 16.09375 15.289062 15.375 C 15.539062 15.152344 15.957031 14.960938 16.320312 14.898438 C 17.378906 14.707031 17.992188 15.527344 18.878906 15.898438 C 19.953125 16.34375 21.222656 16.09375 22.121094 15.375 C 22.371094 15.152344 22.789062 14.960938 23.152344 14.898438 C 24.210938 14.707031 24.824219 15.527344 25.707031 15.898438 C 26.78125 16.34375 28.050781 16.09375 28.949219 15.375 C 29.363281 15.046875 28.777344 14.46875 28.367188 14.796875 Z M 1.886719 17.613281 C 1.566406 17.613281 1.304688 17.875 1.304688 18.195312 L 1.304688 18.730469 C 1.304688 19.050781 1.566406 19.308594 1.886719 19.308594 L 28.113281 19.308594 C 28.433594 19.308594 28.695312 19.050781 28.695312 18.730469 L 28.695312 18.195312 C 28.695312 17.875 28.433594 17.613281 28.113281 17.613281 Z M 28.113281 20.128906 L 1.886719 20.128906 C 1.113281 20.128906 0.484375 19.503906 0.484375 18.730469 L 0.484375 18.195312 C 0.484375 17.421875 1.113281 16.792969 1.886719 16.792969 L 28.113281 16.792969 C 28.886719 16.792969 29.515625 17.421875 29.515625 18.195312 L 29.515625 18.730469 C 29.515625 19.503906 28.886719 20.128906 28.113281 20.128906 Z M 3.785156 21.761719 C 3.375 21.761719 3.042969 22.09375 3.042969 22.503906 L 3.042969 23.015625 C 3.042969 24.273438 4.066406 25.300781 5.324219 25.300781 L 24.675781 25.300781 C 25.933594 25.300781 26.957031 24.273438 26.957031 23.015625 L 26.957031 22.503906 C 26.957031 22.09375 26.625 21.761719 26.214844 21.761719 Z M 24.675781 26.121094 L 5.324219 26.121094 C 3.613281 26.121094 2.222656 24.726562 2.222656 23.015625 L 2.222656 22.503906 C 2.222656 21.640625 2.921875 20.941406 3.785156 20.941406 L 26.214844 20.941406 C 27.078125 20.941406 27.777344 21.640625 27.777344 22.503906 L 27.777344 23.015625 C 27.777344 24.726562 26.386719 26.121094 24.675781 26.121094 " fill-opacity="1" fill-rule="nonzero"/></g></svg>