<svg xmlns="http://www.w3.org/2000/svg" xmlns:xlink="http://www.w3.org/1999/xlink" width="40" zoomAndPan="magnify" viewBox="0 0 30 30.000001" height="40" preserveAspectRatio="xMidYMid meet" version="1.0"><defs><clipPath id="b914f40cf6"><path d="M 2.898438 5 L 26.847656 5 L 26.847656 29.03125 L 2.898438 29.03125 Z M 2.898438 5 " clip-rule="nonzero"/></clipPath></defs><g clip-path="url(#b914f40cf6)"><path fill="#ffba08" d="M 25.316406 29.03125 L 4.800781 29.03125 C 4.304688 29.03125 3.820312 28.824219 3.480469 28.460938 C 3.136719 28.101562 2.957031 27.605469 2.984375 27.109375 L 4.0625 7.671875 C 4.117188 6.707031 4.914062 5.953125 5.882812 5.953125 L 24.234375 5.953125 C 25.203125 5.953125 26 6.707031 26.054688 7.671875 L 27.132812 27.109375 C 27.160156 27.605469 26.980469 28.101562 26.636719 28.460938 C 26.292969 28.824219 25.8125 29.03125 25.316406 29.03125 Z M 5.882812 7.167969 C 5.558594 7.167969 5.292969 7.417969 5.277344 7.742188 L 4.195312 27.175781 C 4.1875 27.34375 4.246094 27.503906 4.363281 27.628906 C 4.476562 27.75 4.632812 27.816406 4.800781 27.816406 L 25.316406 27.816406 C 25.484375 27.816406 25.640625 27.75 25.753906 27.628906 C 25.871094 27.503906 25.929688 27.34375 25.921875 27.175781 L 24.839844 7.742188 C 24.824219 7.417969 24.554688 7.167969 24.234375 7.167969 Z M 5.882812 7.167969 " fill-opacity="1" fill-rule="nonzero"/></g><path fill="#ffba08" d="M 20.523438 10.839844 C 20.191406 10.839844 19.917969 10.566406 19.917969 10.234375 L 19.917969 6.0625 C 19.917969 3.382812 17.738281 1.203125 15.058594 1.203125 C 12.378906 1.203125 10.199219 3.382812 10.199219 6.0625 L 10.199219 10.234375 C 10.199219 10.566406 9.925781 10.839844 9.59375 10.839844 C 9.257812 10.839844 8.984375 10.566406 8.984375 10.234375 L 8.984375 6.0625 C 8.984375 2.714844 11.710938 -0.0078125 15.058594 -0.0078125 C 18.40625 -0.0078125 21.132812 2.714844 21.132812 6.0625 L 21.132812 10.234375 C 21.132812 10.566406 20.859375 10.839844 20.523438 10.839844 Z M 20.523438 10.839844 " fill-opacity="1" fill-rule="nonzero"/></svg>