<svg xmlns="http://www.w3.org/2000/svg" xmlns:xlink="http://www.w3.org/1999/xlink" width="40" zoomAndPan="magnify" viewBox="0 0 30 30.000001" height="40" preserveAspectRatio="xMidYMid meet" version="1.0"><defs><clipPath id="009f46d7b8"><path d="M 3.386719 1.886719 L 26.613281 1.886719 L 26.613281 25.113281 L 3.386719 25.113281 Z M 3.386719 1.886719 " clip-rule="nonzero"/></clipPath></defs><g clip-path="url(#009f46d7b8)"><path fill="#d9d9d9" d="M 19.976562 10.988281 C 20.085938 11.097656 20.140625 11.226562 20.140625 11.382812 C 20.140625 11.535156 20.085938 11.667969 19.976562 11.773438 C 19.871094 11.882812 19.742188 11.933594 19.589844 11.929688 C 19.433594 11.929688 19.300781 11.875 19.191406 11.761719 L 15.554688 8.125 L 15.554688 20.089844 C 15.554688 20.246094 15.5 20.375 15.390625 20.484375 C 15.28125 20.589844 15.152344 20.644531 15 20.644531 C 14.847656 20.644531 14.71875 20.589844 14.609375 20.484375 C 14.5 20.375 14.445312 20.246094 14.445312 20.089844 L 14.445312 8.125 L 10.875 11.761719 C 10.769531 11.875 10.636719 11.929688 10.484375 11.933594 C 10.332031 11.933594 10.199219 11.882812 10.089844 11.773438 C 9.980469 11.667969 9.921875 11.539062 9.921875 11.382812 C 9.917969 11.230469 9.972656 11.097656 10.078125 10.988281 L 14.601562 6.386719 C 14.714844 6.285156 14.847656 6.234375 15 6.234375 C 15.152344 6.234375 15.285156 6.285156 15.398438 6.386719 Z M 26.613281 13.5 C 26.613281 14.261719 26.539062 15.019531 26.390625 15.765625 C 26.242188 16.511719 26.019531 17.238281 25.730469 17.945312 C 25.4375 18.648438 25.078125 19.316406 24.65625 19.953125 C 24.230469 20.585938 23.75 21.171875 23.210938 21.710938 C 22.671875 22.25 22.085938 22.730469 21.453125 23.15625 C 20.816406 23.578125 20.148438 23.9375 19.445312 24.230469 C 18.738281 24.519531 18.011719 24.742188 17.265625 24.890625 C 16.519531 25.039062 15.761719 25.113281 15 25.113281 C 14.238281 25.113281 13.480469 25.039062 12.734375 24.890625 C 11.988281 24.742188 11.261719 24.519531 10.554688 24.230469 C 9.851562 23.9375 9.183594 23.578125 8.546875 23.15625 C 7.914062 22.730469 7.328125 22.25 6.789062 21.710938 C 6.25 21.171875 5.769531 20.585938 5.34375 19.953125 C 4.921875 19.316406 4.5625 18.648438 4.269531 17.945312 C 3.980469 17.238281 3.757812 16.511719 3.609375 15.765625 C 3.460938 15.019531 3.386719 14.261719 3.386719 13.5 C 3.386719 12.738281 3.460938 11.980469 3.609375 11.234375 C 3.757812 10.488281 3.980469 9.761719 4.269531 9.054688 C 4.5625 8.351562 4.921875 7.683594 5.34375 7.046875 C 5.769531 6.414062 6.25 5.828125 6.789062 5.289062 C 7.328125 4.75 7.914062 4.269531 8.546875 3.84375 C 9.183594 3.421875 9.851562 3.0625 10.554688 2.769531 C 11.261719 2.480469 11.988281 2.257812 12.734375 2.109375 C 13.480469 1.960938 14.238281 1.886719 15 1.886719 C 15.761719 1.886719 16.515625 1.960938 17.265625 2.113281 C 18.011719 2.261719 18.738281 2.480469 19.441406 2.773438 C 20.148438 3.066406 20.816406 3.425781 21.449219 3.847656 C 22.082031 4.269531 22.667969 4.753906 23.207031 5.292969 C 23.746094 5.832031 24.230469 6.417969 24.652344 7.050781 C 25.074219 7.683594 25.433594 8.351562 25.726562 9.058594 C 26.019531 9.761719 26.238281 10.488281 26.386719 11.234375 C 26.539062 11.984375 26.613281 12.738281 26.613281 13.5 Z M 25.507812 13.5 C 25.507812 12.808594 25.441406 12.125 25.304688 11.449219 C 25.171875 10.773438 24.972656 10.117188 24.707031 9.480469 C 24.441406 8.84375 24.121094 8.234375 23.734375 7.664062 C 23.351562 7.089844 22.917969 6.558594 22.429688 6.070312 C 21.941406 5.582031 21.410156 5.148438 20.835938 4.765625 C 20.265625 4.378906 19.65625 4.058594 19.019531 3.792969 C 18.382812 3.527344 17.726562 3.328125 17.050781 3.195312 C 16.375 3.058594 15.691406 2.992188 15 2.992188 C 14.308594 2.992188 13.625 3.058594 12.949219 3.195312 C 12.273438 3.328125 11.617188 3.527344 10.980469 3.792969 C 10.34375 4.058594 9.734375 4.378906 9.164062 4.765625 C 8.589844 5.148438 8.058594 5.582031 7.570312 6.070312 C 7.082031 6.558594 6.648438 7.089844 6.265625 7.664062 C 5.878906 8.234375 5.558594 8.84375 5.292969 9.480469 C 5.027344 10.117188 4.828125 10.773438 4.695312 11.449219 C 4.558594 12.125 4.492188 12.808594 4.492188 13.5 C 4.492188 14.191406 4.558594 14.875 4.695312 15.550781 C 4.828125 16.226562 5.027344 16.882812 5.292969 17.519531 C 5.558594 18.15625 5.878906 18.765625 6.265625 19.335938 C 6.648438 19.910156 7.082031 20.441406 7.570312 20.929688 C 8.058594 21.417969 8.589844 21.851562 9.164062 22.234375 C 9.734375 22.621094 10.34375 22.941406 10.980469 23.207031 C 11.617188 23.472656 12.273438 23.671875 12.949219 23.804688 C 13.625 23.941406 14.308594 24.007812 15 24.007812 C 15.691406 24.007812 16.371094 23.9375 17.050781 23.804688 C 17.726562 23.667969 18.382812 23.46875 19.019531 23.203125 C 19.65625 22.941406 20.261719 22.617188 20.835938 22.234375 C 21.40625 21.847656 21.9375 21.414062 22.425781 20.925781 C 22.914062 20.4375 23.347656 19.90625 23.734375 19.335938 C 24.117188 18.761719 24.441406 18.15625 24.703125 17.519531 C 24.96875 16.882812 25.167969 16.226562 25.304688 15.550781 C 25.4375 14.871094 25.507812 14.191406 25.507812 13.5 Z M 25.507812 13.5 " fill-opacity="1" fill-rule="nonzero"/></g></svg>